<svg xmlns="http://www.w3.org/2000/svg" width="1920" height="1920"><path d="M189,-324L923,-272L1097,-310Z" fill="#c5d3e7" stroke="#c5d3e7" stroke-width="1.51"/><path d="M737,2198L281,2223L1247,2236Z" fill="#7c5e91" stroke="#7c5e91" stroke-width="1.51"/><path d="M1544,2189L1354,2209L1820,2245Z" fill="#71297a" stroke="#71297a" stroke-width="1.51"/><path d="M1354,2209L1247,2236L1820,2245Z" fill="#70307c" stroke="#70307c" stroke-width="1.51"/><path d="M1587,-294L1709,-271L2152,-210Z" fill="#bd91c1" stroke="#bd91c1" stroke-width="1.51"/><path d="M1709,-271L1979,-197L2152,-210Z" fill="#bb8aba" stroke="#bb8aba" stroke-width="1.51"/><path d="M2173,1023L2112,1122L2181,1364Z" fill="#7a478b" stroke="#7a478b" stroke-width="1.51"/><path d="M2064,714L2149,825L2188,558Z" fill="#85659a" stroke="#85659a" stroke-width="1.51"/><path d="M2163,306L2041,490L2188,558Z" fill="#8f6e9f" stroke="#8f6e9f" stroke-width="1.51"/><path d="M2149,825L2173,1023L2188,558Z" fill="#7f5e94" stroke="#7f5e94" stroke-width="1.51"/><path d="M1820,2245L1247,2236L2190,2266Z" fill="#6d1b70" stroke="#6d1b70" stroke-width="1.51"/><path d="M1942,2121L2190,2266L2192,1918Z" fill="#690666" stroke="#690666" stroke-width="1.51"/><path d="M2181,1364L2203,1589L2262,1731Z" fill="#712a7a" stroke="#712a7a" stroke-width="1.51"/><path d="M2173,1023L2181,1364L2262,1731Z" fill="#733780" stroke="#733780" stroke-width="1.51"/><path d="M2056,1851L2192,1918L2262,1731Z" fill="#721772" stroke="#721772" stroke-width="1.51"/><path d="M2192,1918L2190,2266L2262,1731Z" fill="#6c0768" stroke="#6c0768" stroke-width="1.51"/><path d="M2172,-121L2034,115L2269,73Z" fill="#a07aa5" stroke="#a07aa5" stroke-width="1.51"/><path d="M2034,115L2163,306L2269,73Z" fill="#9a76a3" stroke="#9a76a3" stroke-width="1.51"/><path d="M2152,-210L2172,-121L2269,73Z" fill="#a17ca4" stroke="#a17ca4" stroke-width="1.51"/><path d="M2163,306L2188,558L2269,73Z" fill="#8f6f9b" stroke="#8f6f9b" stroke-width="1.51"/><path d="M2173,1023L2262,1731L2269,73Z" fill="#75538b" stroke="#75538b" stroke-width="1.51"/><path d="M2188,558L2173,1023L2269,73Z" fill="#846798" stroke="#846798" stroke-width="1.51"/><path d="M2203,1589L2047,1616L2262,1731Z" fill="#74257b" stroke="#74257b" stroke-width="1.51"/><path d="M2047,1616L2056,1851L2262,1731Z" fill="#77207b" stroke="#77207b" stroke-width="1.51"/><path d="M2030,341L2041,490L2163,306Z" fill="#9772a5" stroke="#9772a5" stroke-width="1.51"/><path d="M1973,-19L2034,115L2172,-121Z" fill="#ab80ae" stroke="#ab80ae" stroke-width="1.51"/><path d="M2112,1122L1946,1216L2181,1364Z" fill="#7f458f" stroke="#7f458f" stroke-width="1.51"/><path d="M1974,1922L1942,2121L2192,1918Z" fill="#790c74" stroke="#790c74" stroke-width="1.51"/><path d="M2181,1364L1993,1441L2203,1589Z" fill="#793484" stroke="#793484" stroke-width="1.51"/><path d="M1993,1441L2047,1616L2203,1589Z" fill="#7c2f85" stroke="#7c2f85" stroke-width="1.51"/><path d="M2149,825L1900,992L2173,1023Z" fill="#835998" stroke="#835998" stroke-width="1.51"/><path d="M2041,490L2064,714L2188,558Z" fill="#8c6b9f" stroke="#8c6b9f" stroke-width="1.51"/><path d="M1942,2121L1820,2245L2190,2266Z" fill="#6b0767" stroke="#6b0767" stroke-width="1.51"/><path d="M2056,1851L1974,1922L2192,1918Z" fill="#791376" stroke="#791376" stroke-width="1.51"/><path d="M2034,115L2030,341L2163,306Z" fill="#9d76a7" stroke="#9d76a7" stroke-width="1.51"/><path d="M1946,1216L1993,1441L2181,1364Z" fill="#813f8e" stroke="#813f8e" stroke-width="1.51"/><path d="M189,-324L673,-249L923,-272Z" fill="#c9dbeb" stroke="#c9dbeb" stroke-width="1.51"/><path d="M2152,-210L1979,-197L2172,-121Z" fill="#ac82ad" stroke="#ac82ad" stroke-width="1.51"/><path d="M1979,-197L1973,-19L2172,-121Z" fill="#b083b1" stroke="#b083b1" stroke-width="1.51"/><path d="M1900,992L2112,1122L2173,1023Z" fill="#835396" stroke="#835396" stroke-width="1.51"/><path d="M2064,714L1900,992L2149,825Z" fill="#88609d" stroke="#88609d" stroke-width="1.51"/><path d="M1817,807L1900,992L2064,714Z" fill="#9065a5" stroke="#9065a5" stroke-width="1.51"/><path d="M1900,992L1946,1216L2112,1122Z" fill="#88519a" stroke="#88519a" stroke-width="1.51"/><path d="M1773,279L2030,341L2034,115Z" fill="#a77cb2" stroke="#a77cb2" stroke-width="1.51"/><path d="M2047,1616L1796,1709L2056,1851Z" fill="#832587" stroke="#832587" stroke-width="1.51"/><path d="M1796,1709L1974,1922L2056,1851Z" fill="#831f83" stroke="#831f83" stroke-width="1.51"/><path d="M2041,490L1795,598L2064,714Z" fill="#9770aa" stroke="#9770aa" stroke-width="1.51"/><path d="M1795,598L1817,807L2064,714Z" fill="#946eab" stroke="#946eab" stroke-width="1.51"/><path d="M1900,992L1847,1163L1946,1216Z" fill="#8b549f" stroke="#8b549f" stroke-width="1.51"/><path d="M2030,341L1773,279L2041,490Z" fill="#a278af" stroke="#a278af" stroke-width="1.51"/><path d="M1773,279L1795,598L2041,490Z" fill="#9e79b2" stroke="#9e79b2" stroke-width="1.51"/><path d="M1993,1441L1737,1584L2047,1616Z" fill="#863590" stroke="#863590" stroke-width="1.51"/><path d="M1737,1584L1796,1709L2047,1616Z" fill="#863391" stroke="#863391" stroke-width="1.51"/><path d="M1973,-19L1709,161L2034,115Z" fill="#af84b7" stroke="#af84b7" stroke-width="1.51"/><path d="M1709,161L1773,279L2034,115Z" fill="#ab84b9" stroke="#ab84b9" stroke-width="1.51"/><path d="M1709,1958L1942,2121L1974,1922Z" fill="#7f187d" stroke="#7f187d" stroke-width="1.51"/><path d="M1728,-105L1973,-19L1979,-197Z" fill="#b88abb" stroke="#b88abb" stroke-width="1.51"/><path d="M1946,1216L1742,1402L1993,1441Z" fill="#894597" stroke="#894597" stroke-width="1.51"/><path d="M1742,1402L1737,1584L1993,1441Z" fill="#884097" stroke="#884097" stroke-width="1.51"/><path d="M1728,-105L1709,161L1973,-19Z" fill="#b38bbe" stroke="#b38bbe" stroke-width="1.51"/><path d="M1796,1709L1709,1958L1974,1922Z" fill="#842587" stroke="#842587" stroke-width="1.51"/><path d="M1709,-271L1728,-105L1979,-197Z" fill="#ba90c1" stroke="#ba90c1" stroke-width="1.51"/><path d="M1847,1163L1742,1402L1946,1216Z" fill="#8a4d9d" stroke="#8a4d9d" stroke-width="1.51"/><path d="M1817,807L1768,940L1900,992Z" fill="#8e65a9" stroke="#8e65a9" stroke-width="1.51"/><path d="M1709,1958L1820,2245L1942,2121Z" fill="#761977" stroke="#761977" stroke-width="1.51"/><path d="M1630,72L1709,161L1728,-105Z" fill="#b290c4" stroke="#b290c4" stroke-width="1.51"/><path d="M1773,279L1647,315L1795,598Z" fill="#a182ba" stroke="#a182ba" stroke-width="1.51"/><path d="M1768,940L1847,1163L1900,992Z" fill="#8c5ea4" stroke="#8c5ea4" stroke-width="1.51"/><path d="M1638,1700L1709,1958L1796,1709Z" fill="#863290" stroke="#863290" stroke-width="1.51"/><path d="M1709,1958L1544,2189L1820,2245Z" fill="#77237c" stroke="#77237c" stroke-width="1.51"/><path d="M1511,1235L1742,1402L1847,1163Z" fill="#8a54a4" stroke="#8a54a4" stroke-width="1.51"/><path d="M1640,1027L1511,1235L1847,1163Z" fill="#8b5faa" stroke="#8b5faa" stroke-width="1.51"/><path d="M1768,940L1640,1027L1847,1163Z" fill="#8c61a8" stroke="#8c61a8" stroke-width="1.51"/><path d="M1647,315L1515,505L1795,598Z" fill="#9e84bd" stroke="#9e84bd" stroke-width="1.51"/><path d="M1795,598L1557,808L1817,807Z" fill="#9375b3" stroke="#9375b3" stroke-width="1.51"/><path d="M1557,808L1768,940L1817,807Z" fill="#906fb0" stroke="#906fb0" stroke-width="1.51"/><path d="M1515,505L1557,808L1795,598Z" fill="#9680bb" stroke="#9680bb" stroke-width="1.51"/><path d="M1737,1584L1638,1700L1796,1709Z" fill="#873996" stroke="#873996" stroke-width="1.51"/><path d="M1097,-310L1285,-232L1587,-294Z" fill="#bfadd4" stroke="#bfadd4" stroke-width="1.51"/><path d="M1582,1565L1737,1584L1742,1402Z" fill="#89459d" stroke="#89459d" stroke-width="1.51"/><path d="M1557,808L1640,1027L1768,940Z" fill="#8e6eb1" stroke="#8e6eb1" stroke-width="1.51"/><path d="M1709,161L1647,315L1773,279Z" fill="#a888be" stroke="#a888be" stroke-width="1.51"/><path d="M1545,1453L1582,1565L1742,1402Z" fill="#894ba1" stroke="#894ba1" stroke-width="1.51"/><path d="M1587,-294L1533,-132L1709,-271Z" fill="#bc9bcb" stroke="#bc9bcb" stroke-width="1.51"/><path d="M1638,1700L1512,1961L1709,1958Z" fill="#863290" stroke="#863290" stroke-width="1.51"/><path d="M1512,1961L1544,2189L1709,1958Z" fill="#802d87" stroke="#802d87" stroke-width="1.51"/><path d="M1709,-271L1533,-132L1728,-105Z" fill="#bb97c9" stroke="#bb97c9" stroke-width="1.51"/><path d="M1582,1565L1638,1700L1737,1584Z" fill="#88409c" stroke="#88409c" stroke-width="1.51"/><path d="M1511,1235L1545,1453L1742,1402Z" fill="#8a54a6" stroke="#8a54a6" stroke-width="1.51"/><path d="M1533,-132L1630,72L1728,-105Z" fill="#b797c8" stroke="#b797c8" stroke-width="1.51"/><path d="M1630,72L1647,315L1709,161Z" fill="#ab8dc2" stroke="#ab8dc2" stroke-width="1.51"/><path d="M1515,505L1388,670L1557,808Z" fill="#9686be" stroke="#9686be" stroke-width="1.51"/><path d="M1431,1754L1512,1961L1638,1700Z" fill="#883e97" stroke="#883e97" stroke-width="1.51"/><path d="M1557,808L1322,994L1640,1027Z" fill="#8d75b5" stroke="#8d75b5" stroke-width="1.51"/><path d="M1450,511L1515,505L1647,315Z" fill="#9f8bc1" stroke="#9f8bc1" stroke-width="1.51"/><path d="M1284,286L1450,511L1647,315Z" fill="#a392c5" stroke="#a392c5" stroke-width="1.51"/><path d="M1322,205L1284,286L1647,315Z" fill="#a898c8" stroke="#a898c8" stroke-width="1.51"/><path d="M1630,72L1322,205L1647,315Z" fill="#ac93c6" stroke="#ac93c6" stroke-width="1.51"/><path d="M1511,1235L1420,1353L1545,1453Z" fill="#8b5ca9" stroke="#8b5ca9" stroke-width="1.51"/><path d="M1582,1565L1431,1754L1638,1700Z" fill="#88449d" stroke="#88449d" stroke-width="1.51"/><path d="M1322,994L1511,1235L1640,1027Z" fill="#8c6db1" stroke="#8c6db1" stroke-width="1.51"/><path d="M1533,-132L1322,205L1630,72Z" fill="#b29bca" stroke="#b29bca" stroke-width="1.51"/><path d="M1322,994L1317,1190L1511,1235Z" fill="#8c70b3" stroke="#8c70b3" stroke-width="1.51"/><path d="M1450,511L1388,670L1515,505Z" fill="#9a8cc1" stroke="#9a8cc1" stroke-width="1.51"/><path d="M1288,-105L1322,205L1533,-132Z" fill="#b5a4cf" stroke="#b5a4cf" stroke-width="1.51"/><path d="M1512,1961L1328,2057L1544,2189Z" fill="#7d3688" stroke="#7d3688" stroke-width="1.51"/><path d="M1344,1614L1431,1754L1582,1565Z" fill="#8a4ca1" stroke="#8a4ca1" stroke-width="1.51"/><path d="M1285,-232L1533,-132L1587,-294Z" fill="#bca4cf" stroke="#bca4cf" stroke-width="1.51"/><path d="M1545,1453L1344,1614L1582,1565Z" fill="#8a50a3" stroke="#8a50a3" stroke-width="1.51"/><path d="M1328,2057L1354,2209L1544,2189Z" fill="#773784" stroke="#773784" stroke-width="1.51"/><path d="M1388,670L1249,749L1557,808Z" fill="#9387bf" stroke="#9387bf" stroke-width="1.51"/><path d="M1249,749L1322,994L1557,808Z" fill="#9082bc" stroke="#9082bc" stroke-width="1.51"/><path d="M1288,-105L1210,85L1322,205Z" fill="#b2a8d1" stroke="#b2a8d1" stroke-width="1.51"/><path d="M1420,1353L1344,1614L1545,1453Z" fill="#8b58a7" stroke="#8b58a7" stroke-width="1.51"/><path d="M1285,-232L1288,-105L1533,-132Z" fill="#baa8d1" stroke="#baa8d1" stroke-width="1.51"/><path d="M1431,1754L1328,2057L1512,1961Z" fill="#883e94" stroke="#883e94" stroke-width="1.51"/><path d="M1317,1190L1420,1353L1511,1235Z" fill="#8c66ae" stroke="#8c66ae" stroke-width="1.51"/><path d="M893,2156L737,2198L1247,2236Z" fill="#77548e" stroke="#77548e" stroke-width="1.51"/><path d="M1225,1382L1344,1614L1420,1353Z" fill="#8c60ab" stroke="#8c60ab" stroke-width="1.51"/><path d="M1205,2043L1328,2057L1431,1754Z" fill="#884496" stroke="#884496" stroke-width="1.51"/><path d="M1099,1742L1205,2043L1431,1754Z" fill="#8a4f9d" stroke="#8a4f9d" stroke-width="1.51"/><path d="M1205,592L1388,670L1450,511Z" fill="#9991c4" stroke="#9991c4" stroke-width="1.51"/><path d="M1284,286L1205,592L1450,511Z" fill="#9e98c8" stroke="#9e98c8" stroke-width="1.51"/><path d="M1344,1614L1099,1742L1431,1754Z" fill="#8a53a3" stroke="#8a53a3" stroke-width="1.51"/><path d="M1215,-64L1210,85L1288,-105Z" fill="#b6add4" stroke="#b6add4" stroke-width="1.51"/><path d="M1317,1190L1225,1382L1420,1353Z" fill="#8c69af" stroke="#8c69af" stroke-width="1.51"/><path d="M1213,1152L1317,1190L1322,994Z" fill="#8d78b7" stroke="#8d78b7" stroke-width="1.51"/><path d="M1205,592L1249,749L1388,670Z" fill="#9592c4" stroke="#9592c4" stroke-width="1.51"/><path d="M1079,329L1205,592L1284,286Z" fill="#a1a2cd" stroke="#a1a2cd" stroke-width="1.51"/><path d="M1249,749L1134,980L1322,994Z" fill="#8e88bf" stroke="#8e88bf" stroke-width="1.51"/><path d="M1205,2043L1247,2236L1328,2057Z" fill="#7c428b" stroke="#7c428b" stroke-width="1.51"/><path d="M1136,1592L1099,1742L1344,1614Z" fill="#8c5ca9" stroke="#8c5ca9" stroke-width="1.51"/><path d="M1225,1382L1136,1592L1344,1614Z" fill="#8b61ac" stroke="#8b61ac" stroke-width="1.51"/><path d="M1328,2057L1247,2236L1354,2209Z" fill="#773d85" stroke="#773d85" stroke-width="1.51"/><path d="M1213,1152L1225,1382L1317,1190Z" fill="#8c71b4" stroke="#8c71b4" stroke-width="1.51"/><path d="M1134,980L1213,1152L1322,994Z" fill="#8d80bb" stroke="#8d80bb" stroke-width="1.51"/><path d="M1210,85L1284,286L1322,205Z" fill="#aba4ce" stroke="#aba4ce" stroke-width="1.51"/><path d="M1099,1742L1014,2013L1205,2043Z" fill="#8b549e" stroke="#8b549e" stroke-width="1.51"/><path d="M1210,85L1079,329L1284,286Z" fill="#a9a7d0" stroke="#a9a7d0" stroke-width="1.51"/><path d="M1097,-310L1215,-64L1285,-232Z" fill="#bcb4d7" stroke="#bcb4d7" stroke-width="1.51"/><path d="M1285,-232L1215,-64L1288,-105Z" fill="#baaed5" stroke="#baaed5" stroke-width="1.51"/><path d="M1079,329L981,425L1205,592Z" fill="#9fa7cf" stroke="#9fa7cf" stroke-width="1.51"/><path d="M1213,1152L898,1295L1225,1382Z" fill="#8d78b7" stroke="#8d78b7" stroke-width="1.51"/><path d="M1033,1521L1136,1592L1225,1382Z" fill="#8c6ab0" stroke="#8c6ab0" stroke-width="1.51"/><path d="M1205,2043L1014,2013L1247,2236Z" fill="#7f4a8f" stroke="#7f4a8f" stroke-width="1.51"/><path d="M1014,2013L893,2156L1247,2236Z" fill="#7c5090" stroke="#7c5090" stroke-width="1.51"/><path d="M1205,592L902,682L1249,749Z" fill="#959cc9" stroke="#959cc9" stroke-width="1.51"/><path d="M902,682L1134,980L1249,749Z" fill="#9196c6" stroke="#9196c6" stroke-width="1.51"/><path d="M902,682L948,969L1134,980Z" fill="#8f98c7" stroke="#8f98c7" stroke-width="1.51"/><path d="M934,204L1079,329L1210,85Z" fill="#abb0d4" stroke="#abb0d4" stroke-width="1.51"/><path d="M1030,-8L1210,85L1215,-64Z" fill="#b5b2d6" stroke="#b5b2d6" stroke-width="1.51"/><path d="M1097,-310L1030,-8L1215,-64Z" fill="#bab8d9" stroke="#bab8d9" stroke-width="1.51"/><path d="M898,1295L1033,1521L1225,1382Z" fill="#8d74b5" stroke="#8d74b5" stroke-width="1.51"/><path d="M1030,-8L934,204L1210,85Z" fill="#b0b5d7" stroke="#b0b5d7" stroke-width="1.51"/><path d="M1134,980L911,1102L1213,1152Z" fill="#8d86be" stroke="#8d86be" stroke-width="1.51"/><path d="M911,1102L898,1295L1213,1152Z" fill="#8d85bd" stroke="#8d85bd" stroke-width="1.51"/><path d="M981,425L898,544L1205,592Z" fill="#9ba8d0" stroke="#9ba8d0" stroke-width="1.51"/><path d="M898,544L902,682L1205,592Z" fill="#96a7cf" stroke="#96a7cf" stroke-width="1.51"/><path d="M923,-272L1030,-8L1097,-310Z" fill="#bbc0dd" stroke="#bbc0dd" stroke-width="1.51"/><path d="M1033,1521L956,1759L1099,1742Z" fill="#8c66ad" stroke="#8c66ad" stroke-width="1.51"/><path d="M956,1759L1014,2013L1099,1742Z" fill="#8b5ea5" stroke="#8b5ea5" stroke-width="1.51"/><path d="M948,969L911,1102L1134,980Z" fill="#8c90c3" stroke="#8c90c3" stroke-width="1.51"/><path d="M1033,1521L1099,1742L1136,1592Z" fill="#8c65ad" stroke="#8c65ad" stroke-width="1.51"/><path d="M923,-272L811,-134L1030,-8Z" fill="#bbc5df" stroke="#bbc5df" stroke-width="1.51"/><path d="M934,204L981,425L1079,329Z" fill="#a4b1d4" stroke="#a4b1d4" stroke-width="1.51"/><path d="M488,2157L281,2223L737,2198Z" fill="#886a9a" stroke="#886a9a" stroke-width="1.51"/><path d="M902,682L767,757L948,969Z" fill="#93a4cd" stroke="#93a4cd" stroke-width="1.51"/><path d="M725,1779L694,2011L956,1759Z" fill="#916cab" stroke="#916cab" stroke-width="1.51"/><path d="M956,1759L694,2011L1014,2013Z" fill="#8e62a4" stroke="#8e62a4" stroke-width="1.51"/><path d="M811,-134L934,204L1030,-8Z" fill="#b4c0dc" stroke="#b4c0dc" stroke-width="1.51"/><path d="M898,1295L739,1384L1033,1521Z" fill="#8f7eba" stroke="#8f7eba" stroke-width="1.51"/><path d="M739,1384L767,1616L1033,1521Z" fill="#907bb8" stroke="#907bb8" stroke-width="1.51"/><path d="M767,1616L956,1759L1033,1521Z" fill="#8e6fb2" stroke="#8e6fb2" stroke-width="1.51"/><path d="M811,-134L757,201L934,204Z" fill="#b3c3de" stroke="#b3c3de" stroke-width="1.51"/><path d="M934,204L785,408L981,425Z" fill="#a5b6d7" stroke="#a5b6d7" stroke-width="1.51"/><path d="M694,2011L893,2156L1014,2013Z" fill="#865e9b" stroke="#865e9b" stroke-width="1.51"/><path d="M189,-324L389,-231L673,-249Z" fill="#d2e0ee" stroke="#d2e0ee" stroke-width="1.51"/><path d="M805,492L898,544L981,425Z" fill="#9eb1d4" stroke="#9eb1d4" stroke-width="1.51"/><path d="M785,408L805,492L981,425Z" fill="#a1b5d6" stroke="#a1b5d6" stroke-width="1.51"/><path d="M770,1146L898,1295L911,1102Z" fill="#908ec2" stroke="#908ec2" stroke-width="1.51"/><path d="M757,201L785,408L934,204Z" fill="#aabddb" stroke="#aabddb" stroke-width="1.51"/><path d="M767,757L727,1012L948,969Z" fill="#92a1cc" stroke="#92a1cc" stroke-width="1.51"/><path d="M767,1616L725,1779L956,1759Z" fill="#9171b1" stroke="#9171b1" stroke-width="1.51"/><path d="M727,1012L911,1102L948,969Z" fill="#8f97c7" stroke="#8f97c7" stroke-width="1.51"/><path d="M673,-249L811,-134L923,-272Z" fill="#c1cee4" stroke="#c1cee4" stroke-width="1.51"/><path d="M694,2011L737,2198L893,2156Z" fill="#846199" stroke="#846199" stroke-width="1.51"/><path d="M898,544L805,492L902,682Z" fill="#9ab0d3" stroke="#9ab0d3" stroke-width="1.51"/><path d="M805,492L767,757L902,682Z" fill="#98afd3" stroke="#98afd3" stroke-width="1.51"/><path d="M727,1012L770,1146L911,1102Z" fill="#9197c6" stroke="#9197c6" stroke-width="1.51"/><path d="M582,-84L757,201L811,-134Z" fill="#bbcde4" stroke="#bbcde4" stroke-width="1.51"/><path d="M770,1146L739,1384L898,1295Z" fill="#918bc0" stroke="#918bc0" stroke-width="1.51"/><path d="M389,-231L599,-220L673,-249Z" fill="#c9dbeb" stroke="#c9dbeb" stroke-width="1.51"/><path d="M739,1384L558,1588L767,1616Z" fill="#9582bc" stroke="#9582bc" stroke-width="1.51"/><path d="M589,828L727,1012L767,757Z" fill="#96aad1" stroke="#96aad1" stroke-width="1.51"/><path d="M757,201L541,338L785,408Z" fill="#acc2de" stroke="#acc2de" stroke-width="1.51"/><path d="M517,470L767,757L805,492Z" fill="#9fbad9" stroke="#9fbad9" stroke-width="1.51"/><path d="M673,-249L582,-84L811,-134Z" fill="#c2d3e6" stroke="#c2d3e6" stroke-width="1.51"/><path d="M517,470L589,828L767,757Z" fill="#9db8d9" stroke="#9db8d9" stroke-width="1.51"/><path d="M574,1100L739,1384L770,1146Z" fill="#9495c6" stroke="#9495c6" stroke-width="1.51"/><path d="M785,408L517,470L805,492Z" fill="#a5bddb" stroke="#a5bddb" stroke-width="1.51"/><path d="M574,1100L507,1400L739,1384Z" fill="#9794c6" stroke="#9794c6" stroke-width="1.51"/><path d="M582,-84L517,215L757,201Z" fill="#b8cfe4" stroke="#b8cfe4" stroke-width="1.51"/><path d="M541,338L517,470L785,408Z" fill="#aac4de" stroke="#aac4de" stroke-width="1.51"/><path d="M599,-220L582,-84L673,-249Z" fill="#c5d8e9" stroke="#c5d8e9" stroke-width="1.51"/><path d="M490,1859L694,2011L725,1779Z" fill="#9673ad" stroke="#9673ad" stroke-width="1.51"/><path d="M694,2011L586,2066L737,2198Z" fill="#8a689e" stroke="#8a689e" stroke-width="1.51"/><path d="M558,1588L725,1779L767,1616Z" fill="#957bb8" stroke="#957bb8" stroke-width="1.51"/><path d="M727,1012L574,1100L770,1146Z" fill="#949dca" stroke="#949dca" stroke-width="1.51"/><path d="M507,1400L558,1588L739,1384Z" fill="#988bc1" stroke="#988bc1" stroke-width="1.51"/><path d="M517,215L541,338L757,201Z" fill="#b2c9e2" stroke="#b2c9e2" stroke-width="1.51"/><path d="M589,828L486,944L727,1012Z" fill="#98acd1" stroke="#98acd1" stroke-width="1.51"/><path d="M586,2066L488,2157L737,2198Z" fill="#87699c" stroke="#87699c" stroke-width="1.51"/><path d="M558,1588L490,1859L725,1779Z" fill="#987bb6" stroke="#987bb6" stroke-width="1.51"/><path d="M486,944L574,1100L727,1012Z" fill="#97a6ce" stroke="#97a6ce" stroke-width="1.51"/><path d="M517,470L349,590L589,828Z" fill="#a5c1dd" stroke="#a5c1dd" stroke-width="1.51"/><path d="M490,1859L586,2066L694,2011Z" fill="#9670a9" stroke="#9670a9" stroke-width="1.51"/><path d="M382,1297L507,1400L574,1100Z" fill="#9d9ac9" stroke="#9d9ac9" stroke-width="1.51"/><path d="M366,97L517,215L582,-84Z" fill="#c1d4e7" stroke="#c1d4e7" stroke-width="1.51"/><path d="M381,1660L490,1859L558,1588Z" fill="#9e81ba" stroke="#9e81ba" stroke-width="1.51"/><path d="M337,-29L366,97L582,-84Z" fill="#c8d9ea" stroke="#c8d9ea" stroke-width="1.51"/><path d="M490,1859L309,1956L586,2066Z" fill="#9d74ad" stroke="#9d74ad" stroke-width="1.51"/><path d="M349,590L264,727L589,828Z" fill="#a7bfdc" stroke="#a7bfdc" stroke-width="1.51"/><path d="M389,-231L582,-84L599,-220Z" fill="#c9dbeb" stroke="#c9dbeb" stroke-width="1.51"/><path d="M309,1956L488,2157L586,2066Z" fill="#9570a5" stroke="#9570a5" stroke-width="1.51"/><path d="M264,727L486,944L589,828Z" fill="#a2b6d7" stroke="#a2b6d7" stroke-width="1.51"/><path d="M285,1204L382,1297L574,1100Z" fill="#a1a1cc" stroke="#a1a1cc" stroke-width="1.51"/><path d="M389,-231L337,-29L582,-84Z" fill="#cbdceb" stroke="#cbdceb" stroke-width="1.51"/><path d="M486,944L285,1204L574,1100Z" fill="#9fa7cf" stroke="#9fa7cf" stroke-width="1.51"/><path d="M264,727L302,931L486,944Z" fill="#a5b7d8" stroke="#a5b7d8" stroke-width="1.51"/><path d="M381,1660L341,1712L490,1859Z" fill="#a181b9" stroke="#a181b9" stroke-width="1.51"/><path d="M507,1400L381,1660L558,1588Z" fill="#9d89c0" stroke="#9d89c0" stroke-width="1.51"/><path d="M302,931L285,1204L486,944Z" fill="#a3aed3" stroke="#a3aed3" stroke-width="1.51"/><path d="M517,215L320,389L541,338Z" fill="#b6cce3" stroke="#b6cce3" stroke-width="1.51"/><path d="M320,389L517,470L541,338Z" fill="#b2c9e1" stroke="#b2c9e1" stroke-width="1.51"/><path d="M382,1297L381,1660L507,1400Z" fill="#a191c4" stroke="#a191c4" stroke-width="1.51"/><path d="M320,389L349,590L517,470Z" fill="#b1c9e1" stroke="#b1c9e1" stroke-width="1.51"/><path d="M366,97L320,389L517,215Z" fill="#bdd1e5" stroke="#bdd1e5" stroke-width="1.51"/><path d="M115,1414L381,1660L382,1297Z" fill="#a795c6" stroke="#a795c6" stroke-width="1.51"/><path d="M309,1956L281,2223L488,2157Z" fill="#9571a3" stroke="#9571a3" stroke-width="1.51"/><path d="M341,1712L309,1956L490,1859Z" fill="#a27db4" stroke="#a27db4" stroke-width="1.51"/><path d="M-150,2134L-233,2176L281,2223Z" fill="#a17ca5" stroke="#a17ca5" stroke-width="1.51"/><path d="M137,1032L285,1204L302,931Z" fill="#a9b0d4" stroke="#a9b0d4" stroke-width="1.51"/><path d="M185,1997L281,2223L309,1956Z" fill="#9e77a8" stroke="#9e77a8" stroke-width="1.51"/><path d="M75,127L156,402L320,389Z" fill="#c4d6e8" stroke="#c4d6e8" stroke-width="1.51"/><path d="M186,1853L309,1956L341,1712Z" fill="#a680b7" stroke="#a680b7" stroke-width="1.51"/><path d="M75,127L320,389L366,97Z" fill="#c6d8e9" stroke="#c6d8e9" stroke-width="1.51"/><path d="M91,1594L341,1712L381,1660Z" fill="#a88ac0" stroke="#a88ac0" stroke-width="1.51"/><path d="M115,1414L91,1594L381,1660Z" fill="#ab92c5" stroke="#ab92c5" stroke-width="1.51"/><path d="M285,1204L115,1414L382,1297Z" fill="#a89fcb" stroke="#a89fcb" stroke-width="1.51"/><path d="M202,-40L337,-29L389,-231Z" fill="#d1e0ed" stroke="#d1e0ed" stroke-width="1.51"/><path d="M189,-324L202,-40L389,-231Z" fill="#d7e5ef" stroke="#d7e5ef" stroke-width="1.51"/><path d="M320,389L156,402L349,590Z" fill="#b8cde4" stroke="#b8cde4" stroke-width="1.51"/><path d="M66,2105L-150,2134L281,2223Z" fill="#9f79a5" stroke="#9f79a5" stroke-width="1.51"/><path d="M156,402L108,539L349,590Z" fill="#b9cfe4" stroke="#b9cfe4" stroke-width="1.51"/><path d="M337,-29L202,-40L366,97Z" fill="#cdddec" stroke="#cdddec" stroke-width="1.51"/><path d="M202,-40L75,127L366,97Z" fill="#cfdeec" stroke="#cfdeec" stroke-width="1.51"/><path d="M108,539L264,727L349,590Z" fill="#b2cae1" stroke="#b2cae1" stroke-width="1.51"/><path d="M91,1594L186,1853L341,1712Z" fill="#aa89bf" stroke="#aa89bf" stroke-width="1.51"/><path d="M185,1997L66,2105L281,2223Z" fill="#9e78a7" stroke="#9e78a7" stroke-width="1.51"/><path d="M264,727L79,821L302,931Z" fill="#adbfdc" stroke="#adbfdc" stroke-width="1.51"/><path d="M186,1853L185,1997L309,1956Z" fill="#a97db3" stroke="#a97db3" stroke-width="1.51"/><path d="M137,1032L65,1143L285,1204Z" fill="#adaed3" stroke="#adaed3" stroke-width="1.51"/><path d="M79,821L137,1032L302,931Z" fill="#adbad9" stroke="#adbad9" stroke-width="1.51"/><path d="M-294,-274L-89,-211L189,-324Z" fill="#e9f2f8" stroke="#e9f2f8" stroke-width="1.51"/><path d="M12,1326L115,1414L285,1204Z" fill="#aea2ce" stroke="#aea2ce" stroke-width="1.51"/><path d="M65,1143L12,1326L285,1204Z" fill="#afa9d1" stroke="#afa9d1" stroke-width="1.51"/><path d="M189,-324L-89,-211L202,-40Z" fill="#dfeaf3" stroke="#dfeaf3" stroke-width="1.51"/><path d="M108,539L79,821L264,727Z" fill="#b4c9e1" stroke="#b4c9e1" stroke-width="1.51"/><path d="M79,821L19,929L137,1032Z" fill="#b1bedb" stroke="#b1bedb" stroke-width="1.51"/><path d="M-78,1841L185,1997L186,1853Z" fill="#af84b7" stroke="#af84b7" stroke-width="1.51"/><path d="M91,1594L-78,1841L186,1853Z" fill="#b18bbf" stroke="#b18bbf" stroke-width="1.51"/><path d="M-140,-33L75,127L202,-40Z" fill="#d9e7f1" stroke="#d9e7f1" stroke-width="1.51"/><path d="M-89,-211L-140,-33L202,-40Z" fill="#e1ecf4" stroke="#e1ecf4" stroke-width="1.51"/><path d="M-77,593L79,821L108,539Z" fill="#bbcfe5" stroke="#bbcfe5" stroke-width="1.51"/><path d="M75,127L-106,393L156,402Z" fill="#cbdceb" stroke="#cbdceb" stroke-width="1.51"/><path d="M-78,1841L66,2105L185,1997Z" fill="#ae81b3" stroke="#ae81b3" stroke-width="1.51"/><path d="M-40,1581L-78,1841L91,1594Z" fill="#b593c5" stroke="#b593c5" stroke-width="1.51"/><path d="M-106,393L108,539L156,402Z" fill="#c4d7e9" stroke="#c4d7e9" stroke-width="1.51"/><path d="M-78,1841L-150,1982L66,2105Z" fill="#b485b5" stroke="#b485b5" stroke-width="1.51"/><path d="M-132,144L-106,393L75,127Z" fill="#d4e2ef" stroke="#d4e2ef" stroke-width="1.51"/><path d="M-40,1581L91,1594L115,1414Z" fill="#b299c9" stroke="#b299c9" stroke-width="1.51"/><path d="M0,1130L65,1143L137,1032Z" fill="#b1b3d6" stroke="#b1b3d6" stroke-width="1.51"/><path d="M19,929L0,1130L137,1032Z" fill="#b2b8d9" stroke="#b2b8d9" stroke-width="1.51"/><path d="M-77,593L-141,706L79,821Z" fill="#bdcfe4" stroke="#bdcfe4" stroke-width="1.51"/><path d="M-106,393L-77,593L108,539Z" fill="#c5d7e9" stroke="#c5d7e9" stroke-width="1.51"/><path d="M12,1326L-40,1581L115,1414Z" fill="#b39fcc" stroke="#b39fcc" stroke-width="1.51"/><path d="M0,1130L12,1326L65,1143Z" fill="#b4aed4" stroke="#b4aed4" stroke-width="1.51"/><path d="M-140,-33L-132,144L75,127Z" fill="#dbe8f2" stroke="#dbe8f2" stroke-width="1.51"/><path d="M-141,706L19,929L79,821Z" fill="#b9c7e0" stroke="#b9c7e0" stroke-width="1.51"/><path d="M-150,1982L-150,2134L66,2105Z" fill="#ac81ae" stroke="#ac81ae" stroke-width="1.51"/><path d="M-191,1506L-40,1581L12,1326Z" fill="#b7a0cd" stroke="#b7a0cd" stroke-width="1.51"/><path d="M-312,1104L-279,1355L0,1130Z" fill="#bcb4d7" stroke="#bcb4d7" stroke-width="1.51"/><path d="M0,1130L-279,1355L12,1326Z" fill="#b8acd3" stroke="#b8acd3" stroke-width="1.51"/><path d="M-141,706L-347,886L19,929Z" fill="#becae2" stroke="#becae2" stroke-width="1.51"/><path d="M-312,1104L0,1130L19,929Z" fill="#b9bbdb" stroke="#b9bbdb" stroke-width="1.51"/><path d="M-347,886L-312,1104L19,929Z" fill="#bcc3df" stroke="#bcc3df" stroke-width="1.51"/><path d="M-279,1355L-191,1506L12,1326Z" fill="#baa6d1" stroke="#baa6d1" stroke-width="1.51"/><path d="M-301,1814L-78,1841L-40,1581Z" fill="#b992c3" stroke="#b992c3" stroke-width="1.51"/><path d="M-132,144L-245,173L-106,393Z" fill="#d7e4ef" stroke="#d7e4ef" stroke-width="1.51"/><path d="M-245,173L-249,383L-106,393Z" fill="#d4e2ee" stroke="#d4e2ee" stroke-width="1.51"/><path d="M-191,1506L-301,1814L-40,1581Z" fill="#bb99ca" stroke="#bb99ca" stroke-width="1.51"/><path d="M-249,383L-282,597L-106,393Z" fill="#cedeec" stroke="#cedeec" stroke-width="1.51"/><path d="M-270,-100L-140,-33L-89,-211Z" fill="#e7f1f7" stroke="#e7f1f7" stroke-width="1.51"/><path d="M-188,1989L-150,1982L-78,1841Z" fill="#b888b9" stroke="#b888b9" stroke-width="1.51"/><path d="M-301,1814L-188,1989L-78,1841Z" fill="#ba8cbd" stroke="#ba8cbd" stroke-width="1.51"/><path d="M-106,393L-282,597L-77,593Z" fill="#c8daeb" stroke="#c8daeb" stroke-width="1.51"/><path d="M-282,597L-141,706L-77,593Z" fill="#c4d6e9" stroke="#c4d6e9" stroke-width="1.51"/><path d="M-188,1989L-150,2134L-150,1982Z" fill="#b285b2" stroke="#b285b2" stroke-width="1.51"/><path d="M-294,-274L-270,-100L-89,-211Z" fill="#ecf4f8" stroke="#ecf4f8" stroke-width="1.51"/><path d="M-140,-33L-245,173L-132,144Z" fill="#deeaf3" stroke="#deeaf3" stroke-width="1.51"/><path d="M-323,669L-347,886L-141,706Z" fill="#c4d1e6" stroke="#c4d1e6" stroke-width="1.51"/><path d="M-270,-100L-245,173L-140,-33Z" fill="#e4eef5" stroke="#e4eef5" stroke-width="1.51"/><path d="M-188,1989L-233,2176L-150,2134Z" fill="#ad82ad" stroke="#ad82ad" stroke-width="1.51"/><path d="M-282,597L-323,669L-141,706Z" fill="#c5d7e9" stroke="#c5d7e9" stroke-width="1.51"/><path d="M-279,1355L-301,1814L-191,1506Z" fill="#be9fcd" stroke="#be9fcd" stroke-width="1.51"/><path d="M-301,1814L-233,2176L-188,1989Z" fill="#b988b7" stroke="#b988b7" stroke-width="1.51"/><path d="M-323,669L-249,383L-245,173Z" fill="#d2e1ee" stroke="#d2e1ee" stroke-width="1.51"/><path d="M-270,-100L-323,669L-245,173Z" fill="#dbe7f1" stroke="#dbe7f1" stroke-width="1.51"/><path d="M-323,669L-282,597L-249,383Z" fill="#ccdcec" stroke="#ccdcec" stroke-width="1.51"/><path d="M-294,-274L-323,669L-270,-100Z" fill="#e2edf4" stroke="#e2edf4" stroke-width="1.51"/><path d="M-312,1104L-301,1814L-279,1355Z" fill="#bfa8d2" stroke="#bfa8d2" stroke-width="1.51"/><path d="M-312,1104L-347,886L-301,1814Z" fill="#c0b2d7" stroke="#c0b2d7" stroke-width="1.51"/><path d="M-347,886L-323,669L-294,-274Z" fill="#d3e2ee" stroke="#d3e2ee" stroke-width="1.51"/></svg>